<svg xmlns="http://www.w3.org/2000/svg" viewBox="0 0 64 64">
  <defs>
    <linearGradient id="g" x1="0" y1="0" x2="1" y2="1">
      <stop offset="0%" stop-color="#7cff9d"/>
      <stop offset="100%" stop-color="#0e541f"/>
    </linearGradient>
  </defs>
  <rect width="64" height="64" rx="16" ry="16" fill="#081107"/>
  <path fill="url(#g)" d="M32 8c-7 9-12 17-7 28 5 10 8 12 8 12s3-2 8-12c5-11 0-19-7-28z"/>
  <path fill="#0c4f18" d="M24 20c-12 11 12 14 8 36 0 0 10-18 4-28-6-10-16-12-12-8z"/>
  <path fill="#16c859" d="M40 20c12 11-12 14-8 36 0 0-10-18-4-28 6-10 16-12 12-8z"/>
  <path fill="#c8ffc2" opacity="0.8" d="M48 10l3 5 5 1-4 4 1 5-5-2-5 2 1-5-4-4 5-1z"/>
</svg>
